<svg width="113" height="20" viewBox="0 0 113 20" fill="none" xmlns="http://www.w3.org/2000/svg">
<g clip-path="url(#clip0_6209_72398)">
<path d="M71.1381 5.07031C66.4414 5.07031 63.3398 8.04469 63.3398 12.5775C63.3398 17.1103 66.3821 19.9998 71.3745 19.9998C75.4511 19.9998 78.1391 17.7337 78.612 14.9573H74.4761C74.1218 16.2602 72.9103 16.9685 71.2266 16.9685C69.1294 16.9685 67.6522 15.7225 67.6522 13.6544V13.4845H78.7298C78.7591 12.9749 78.7591 12.5494 78.7591 12.1247C78.7591 7.81866 75.6275 5.07103 71.1381 5.07103V5.07031ZM67.7115 10.8211C68.0072 9.12157 69.3658 8.10155 71.1381 8.10155C73.0289 8.10155 74.2989 9.09277 74.5646 10.8492L67.7115 10.8211Z" fill="#191F36"/>
<path d="M85.1431 7.44991L84.7588 5.29688H81.125V19.8297H85.2902V12.6911C85.2902 10.5099 86.2352 8.92342 88.6875 8.92342H90.3712V5.29759H89.5147C87.1217 5.29759 85.9402 6.1758 85.1431 7.45063V7.44991Z" fill="#191F36"/>
<path d="M96.4582 0H92.293L92.3222 19.8301H96.4874L96.4582 11.4166V0Z" fill="#191F36"/>
<path d="M113.001 0H108.836V19.8301H113.001V0Z" fill="#191F36"/>
<path d="M49.5173 4.07933H53.5122L49.5173 14.5328L43.7863 0H37.9668L37.9375 10.848H42.162V6.54405L47.538 19.8301H51.1417L56.5184 6.54405V19.8301H60.7722V4.07933V0H49.5173V4.07933Z" fill="#191F36"/>
<path d="M99.5736 10.8476H99.4618C100.558 10.8476 101.604 10.4085 102.349 9.63678L106.534 5.29688H103.481C102.377 5.29688 101.324 5.74174 100.579 6.52348L96.457 10.8476L101.437 18.128C102.164 19.1898 103.401 19.8297 104.728 19.8297H107.387L102.954 12.6882C102.246 11.5472 100.961 10.8476 99.5729 10.8476H99.5736Z" fill="#191F36"/>
<path d="M37.9375 14.9587V19.8298L39.5656 19.2655C41.1239 18.7256 42.1612 17.3075 42.1612 15.7188V10.8477L40.5332 11.412C38.9756 11.9519 37.9375 13.37 37.9375 14.9587Z" fill="#191F36"/>
</g>
<path d="M0.640625 10.8518V6.22908H2.57569C3.60175 6.22908 4.2835 6.81683 4.2835 7.73477C4.2835 8.65272 3.60175 9.24707 2.57569 9.24707H1.57028V10.8518H0.640625ZM1.57028 8.49423H2.48616C3.00953 8.49423 3.34007 8.19705 3.34007 7.73477C3.34007 7.2725 3.00953 6.98853 2.49305 6.98853H1.57028V8.49423Z" fill="#191F36"/>
<path d="M7.37756 10.8915C5.97964 10.8915 5.01555 9.89426 5.01555 8.54045C5.01555 7.18665 5.97964 6.18945 7.37756 6.18945C8.78238 6.18945 9.74647 7.18665 9.74647 8.54045C9.74647 9.89426 8.78238 10.8915 7.37756 10.8915ZM7.37756 10.1254C8.23836 10.1254 8.79615 9.49142 8.79615 8.54045C8.79615 7.58949 8.23836 6.95551 7.37756 6.95551C6.52366 6.95551 5.96586 7.58949 5.96586 8.54045C5.96586 9.49142 6.52366 10.1254 7.37756 10.1254Z" fill="#191F36"/>
<path d="M11.5687 10.8518L10.2189 6.22908H11.183L12.1264 9.72916L13.1319 6.22908H13.9789L14.9498 9.72916L15.9139 6.22908H16.8574L15.5008 10.8518H14.4265L13.5244 7.63571L12.6498 10.8518H11.5687Z" fill="#191F36"/>
<path d="M17.6991 10.8518V6.22908H20.8944V7.00834H18.6288V8.14422H20.4812V8.89046H18.6288V10.0726H20.977V10.8518H17.6991Z" fill="#191F36"/>
<path d="M21.9035 10.8518V6.22908H23.8386C24.8716 6.22908 25.5671 6.81683 25.5671 7.73477C25.5671 8.34233 25.2228 8.82442 24.6994 9.04235L25.6773 10.8518H24.6443L23.7766 9.24707H22.8332V10.8518H21.9035ZM22.8332 8.49423H23.7629C24.2862 8.49423 24.6168 8.19705 24.6168 7.73477C24.6168 7.2791 24.2862 6.98853 23.7629 6.98853H22.8332V8.49423Z" fill="#191F36"/>
<path d="M26.5787 10.8518V6.22908H29.774V7.00834H27.5084V8.14422H29.3608V8.89046H27.5084V10.0726H29.8566V10.8518H26.5787Z" fill="#191F36"/>
<path d="M30.7832 10.8518V6.22908H32.4565C33.9922 6.22908 34.9701 7.14042 34.9701 8.53385C34.9701 9.92728 33.9922 10.8518 32.4565 10.8518H30.7832ZM31.7128 10.0792H32.4565C33.4344 10.0792 34.0197 9.52444 34.0197 8.53385C34.0197 7.54326 33.4413 7.00174 32.4565 7.00174H31.7128V10.0792Z" fill="#191F36"/>
<path d="M26.5809 17.2795V12.6568H28.3851C29.4732 12.6568 30.1067 13.1125 30.1067 13.8785C30.1067 14.4465 29.7624 14.7766 29.2322 14.8955C29.8381 14.9748 30.2858 15.2984 30.2858 15.9588C30.2858 16.7776 29.6384 17.2795 28.4609 17.2795H26.5809ZM27.5106 16.5597H28.4678C29.0256 16.5597 29.3286 16.322 29.3286 15.9323C29.3286 15.5229 29.0118 15.2918 28.4678 15.2918H27.5106V16.5597ZM27.5106 14.5851H28.4058C28.8947 14.5851 29.1771 14.354 29.1771 13.9776C29.1771 13.6078 28.9016 13.3766 28.4058 13.3766H27.5106V14.5851Z" fill="#191F36"/>
<path d="M32.3109 17.2795V15.5691L30.5342 12.6568H31.6154L32.786 14.6578L33.9843 12.6568H35.0241L33.2405 15.5691V17.2795H32.3109Z" fill="#191F36"/>
<defs>
<clipPath id="clip0_6209_72398">
<rect width="75.0622" height="20" fill="white" transform="translate(37.9375)"/>
</clipPath>
</defs>
</svg>
